<svg xmlns="http://www.w3.org/2000/svg" xmlns:xlink="http://www.w3.org/1999/xlink" version="1.1" x="0px" y="0px" viewBox="0 0 100 100" enable-background="new 0 0 100 100" xml:space="preserve"><g><path d="M90.19,41.256h-6.728c-0.797-3.087-2.008-6.015-3.614-8.733l4.764-4.764c0.905-0.905,1.404-2.111,1.404-3.396   s-0.499-2.491-1.404-3.396l-5.579-5.58c-1.872-1.872-4.919-1.874-6.793,0l-4.764,4.764c-2.718-1.606-5.646-2.817-8.732-3.614V9.81   c0-2.652-2.158-4.81-4.811-4.81h-7.867c-2.652,0-4.811,2.158-4.811,4.81v6.728c-3.086,0.797-6.014,2.008-8.732,3.614l-4.764-4.764   c-1.873-1.873-4.92-1.873-6.793,0l-5.579,5.579c-0.905,0.905-1.404,2.111-1.404,3.396s0.499,2.491,1.404,3.396l4.764,4.764   c-1.606,2.718-2.818,5.645-3.614,8.733H9.81c-2.652,0-4.81,2.158-4.81,4.81v7.868c0,2.652,2.157,4.81,4.81,4.81h6.728   c0.797,3.087,2.008,6.015,3.614,8.733l-4.764,4.764c-0.905,0.905-1.404,2.111-1.404,3.396s0.499,2.491,1.404,3.396l5.579,5.58   c0.937,0.937,2.166,1.405,3.396,1.405c1.229,0,2.46-0.468,3.396-1.405l4.764-4.764c2.718,1.606,5.646,2.817,8.732,3.614v6.728   c0,2.652,2.158,4.81,4.811,4.81h7.867c2.652,0,4.811-2.158,4.811-4.81v-6.728c3.086-0.797,6.014-2.008,8.732-3.614l4.764,4.764   c0.937,0.937,2.166,1.405,3.396,1.405s2.46-0.468,3.396-1.405l5.579-5.579c0.905-0.905,1.404-2.111,1.404-3.396   s-0.499-2.491-1.404-3.396l-4.764-4.764c1.606-2.718,2.818-5.645,3.614-8.733h6.728c2.652,0,4.81-2.158,4.81-4.81v-7.868   C95,43.414,92.843,41.256,90.19,41.256z M92,53.934c0,0.998-0.812,1.81-1.81,1.81h-7.885c-0.001,0-0.002,0-0.003,0h-0.019   c-0.033,0-0.064,0.008-0.096,0.01c-0.065,0.004-0.131,0.007-0.194,0.02c-0.038,0.007-0.073,0.021-0.11,0.032   c-0.057,0.016-0.115,0.03-0.17,0.053c-0.036,0.015-0.068,0.035-0.103,0.053c-0.052,0.026-0.105,0.051-0.153,0.083   c-0.031,0.02-0.057,0.045-0.087,0.068c-0.047,0.036-0.095,0.071-0.137,0.113c-0.027,0.026-0.049,0.057-0.074,0.086   c-0.038,0.044-0.077,0.086-0.11,0.134c-0.027,0.039-0.047,0.081-0.07,0.122c-0.024,0.043-0.051,0.084-0.071,0.13   c-0.024,0.054-0.039,0.112-0.056,0.17c-0.011,0.035-0.026,0.068-0.034,0.104c-0.79,3.576-2.18,6.932-4.129,9.973   c-0.047,0.073-0.082,0.149-0.115,0.226c-0.004,0.01-0.01,0.019-0.015,0.029c-0.069,0.172-0.101,0.352-0.103,0.532   c0,0.012-0.003,0.022-0.002,0.034c0.001,0.181,0.038,0.36,0.103,0.529c0.004,0.011,0.006,0.023,0.011,0.034   c0.073,0.176,0.179,0.338,0.317,0.477c0.003,0.003,0.004,0.007,0.006,0.01l0.011,0.011c0.001,0.001,0.003,0.003,0.004,0.004   l5.583,5.583c0.339,0.339,0.525,0.792,0.525,1.275c0,0.483-0.187,0.936-0.525,1.275l-5.579,5.58c-0.703,0.703-1.848,0.703-2.551,0   l-5.584-5.584c-0.001-0.001-0.002-0.002-0.002-0.002l-0.012-0.012c-0.003-0.003-0.007-0.004-0.01-0.007   c-0.14-0.138-0.302-0.244-0.477-0.317c-0.011-0.005-0.022-0.006-0.033-0.011c-0.169-0.065-0.348-0.102-0.529-0.103   c-0.012,0-0.023,0.002-0.035,0.003c-0.179,0.003-0.359,0.035-0.531,0.103c-0.01,0.004-0.018,0.01-0.028,0.014   c-0.077,0.033-0.154,0.068-0.227,0.115c-3.042,1.95-6.397,3.339-9.973,4.13c-0.031,0.007-0.058,0.02-0.088,0.029   c-0.063,0.018-0.127,0.035-0.186,0.061c-0.042,0.018-0.08,0.043-0.12,0.065c-0.045,0.025-0.091,0.047-0.133,0.076   c-0.042,0.029-0.078,0.063-0.116,0.096c-0.035,0.03-0.072,0.057-0.104,0.09c-0.034,0.035-0.063,0.075-0.094,0.113   c-0.03,0.037-0.061,0.072-0.087,0.112c-0.026,0.04-0.046,0.083-0.068,0.126c-0.023,0.043-0.048,0.084-0.066,0.13   c-0.02,0.049-0.032,0.101-0.047,0.152c-0.012,0.042-0.028,0.082-0.036,0.126c-0.013,0.065-0.016,0.132-0.02,0.199   c-0.002,0.03-0.009,0.059-0.009,0.09v0.018c0,0.002,0,0.004,0,0.006v7.881c0,0.998-0.813,1.81-1.811,1.81h-7.867   c-0.998,0-1.811-0.812-1.811-1.81v-7.881c0-0.002,0-0.004,0-0.006v-0.018c0-0.031-0.007-0.06-0.009-0.091   c-0.004-0.066-0.007-0.133-0.02-0.197c-0.009-0.044-0.024-0.085-0.037-0.128c-0.015-0.05-0.027-0.102-0.047-0.15   c-0.019-0.046-0.044-0.087-0.067-0.131c-0.022-0.042-0.042-0.085-0.068-0.125c-0.026-0.04-0.058-0.075-0.088-0.113   c-0.031-0.038-0.059-0.078-0.093-0.113c-0.032-0.033-0.069-0.061-0.105-0.091c-0.038-0.032-0.074-0.067-0.116-0.095   c-0.042-0.029-0.089-0.052-0.134-0.077c-0.04-0.022-0.077-0.046-0.119-0.065c-0.06-0.026-0.124-0.043-0.187-0.062   c-0.03-0.009-0.057-0.022-0.088-0.029c-3.575-0.791-6.931-2.18-9.973-4.13c-0.073-0.047-0.15-0.082-0.227-0.115   c-0.01-0.004-0.018-0.01-0.028-0.014c-0.172-0.069-0.352-0.101-0.531-0.103c-0.012,0-0.023-0.003-0.035-0.003   c-0.182,0.001-0.36,0.038-0.529,0.103c-0.011,0.004-0.022,0.006-0.033,0.011c-0.175,0.072-0.337,0.179-0.477,0.317   c-0.003,0.003-0.007,0.004-0.01,0.007l-0.012,0.012c-0.001,0.001-0.002,0.002-0.002,0.002l-5.584,5.584   c-0.703,0.703-1.848,0.703-2.551,0l-5.579-5.58c-0.339-0.338-0.525-0.791-0.525-1.274c0-0.484,0.187-0.937,0.525-1.275l5.583-5.583   c0.002-0.002,0.003-0.003,0.005-0.005l0.01-0.01c0.003-0.003,0.003-0.006,0.006-0.009c0.138-0.14,0.245-0.302,0.317-0.478   c0.005-0.011,0.006-0.023,0.011-0.034c0.065-0.169,0.102-0.348,0.103-0.529c0-0.011-0.002-0.022-0.002-0.033   c-0.003-0.18-0.035-0.36-0.104-0.532c-0.004-0.01-0.01-0.018-0.014-0.028c-0.033-0.077-0.068-0.154-0.115-0.227   c-1.949-3.042-3.339-6.397-4.129-9.973c-0.008-0.036-0.024-0.069-0.034-0.104c-0.017-0.058-0.032-0.116-0.056-0.17   c-0.02-0.047-0.047-0.088-0.072-0.132c-0.023-0.04-0.042-0.082-0.068-0.12c-0.034-0.05-0.075-0.094-0.114-0.138   c-0.024-0.027-0.044-0.056-0.07-0.081c-0.044-0.044-0.094-0.081-0.143-0.118c-0.027-0.021-0.052-0.044-0.08-0.063   c-0.051-0.034-0.106-0.06-0.161-0.087c-0.032-0.016-0.062-0.035-0.095-0.049c-0.057-0.023-0.116-0.038-0.176-0.055   c-0.035-0.01-0.069-0.023-0.105-0.03c-0.064-0.013-0.13-0.016-0.196-0.02c-0.032-0.002-0.062-0.01-0.095-0.01h-0.019   c-0.001,0-0.002,0-0.003,0H9.81c-0.998,0-1.81-0.812-1.81-1.81v-7.868c0-0.998,0.812-1.81,1.81-1.81h7.903c0.001,0,0.003,0,0.004,0   c0.003,0,0.005-0.001,0.008-0.001c0.155-0.001,0.302-0.031,0.443-0.076c0.024-0.008,0.048-0.013,0.072-0.022   c0.137-0.051,0.263-0.122,0.377-0.209c0.021-0.016,0.04-0.033,0.06-0.05c0.113-0.095,0.214-0.203,0.295-0.327   c0.009-0.014,0.015-0.029,0.024-0.044c0.079-0.131,0.14-0.274,0.176-0.428c0.002-0.007,0.006-0.012,0.008-0.019   c0.79-3.576,2.18-6.932,4.129-9.973c0.047-0.073,0.082-0.149,0.115-0.227c0.004-0.01,0.01-0.018,0.014-0.028   c0.069-0.173,0.101-0.353,0.104-0.532c0-0.011,0.003-0.022,0.002-0.033c-0.001-0.182-0.038-0.36-0.103-0.529   c-0.004-0.011-0.006-0.023-0.011-0.034c-0.073-0.176-0.179-0.338-0.317-0.478c-0.003-0.003-0.003-0.006-0.006-0.009l-0.01-0.01   c-0.002-0.002-0.003-0.003-0.005-0.005l-5.583-5.583c-0.339-0.339-0.525-0.792-0.525-1.275c0-0.483,0.187-0.936,0.525-1.275   l5.579-5.58c0.703-0.703,1.848-0.703,2.551,0l5.599,5.598c0.006,0.006,0.014,0.007,0.02,0.013c0.128,0.124,0.275,0.217,0.433,0.288   c0.036,0.016,0.07,0.028,0.107,0.041c0.161,0.057,0.328,0.097,0.499,0.097c0.001,0,0.001,0,0.002,0c0,0,0,0,0.001,0   c0.169,0,0.337-0.039,0.501-0.098c0.048-0.017,0.091-0.04,0.138-0.062c0.056-0.027,0.116-0.042,0.17-0.077   c3.042-1.95,6.397-3.339,9.973-4.13c0.031-0.007,0.058-0.02,0.088-0.029c0.064-0.018,0.127-0.035,0.187-0.062   c0.042-0.018,0.079-0.043,0.119-0.065c0.045-0.025,0.092-0.047,0.134-0.077c0.042-0.029,0.078-0.063,0.116-0.095   c0.035-0.03,0.072-0.058,0.105-0.091c0.034-0.035,0.063-0.075,0.093-0.113c0.03-0.037,0.062-0.073,0.088-0.113   c0.026-0.04,0.045-0.083,0.068-0.125c0.023-0.043,0.048-0.085,0.067-0.131c0.02-0.048,0.032-0.1,0.047-0.15   c0.012-0.043,0.028-0.084,0.037-0.128c0.013-0.064,0.016-0.131,0.02-0.197c0.002-0.031,0.009-0.06,0.009-0.091v-0.018   c0-0.002,0-0.004,0-0.006V9.81c0-0.998,0.813-1.81,1.811-1.81h7.867c0.998,0,1.811,0.812,1.811,1.81v7.881c0,0.002,0,0.004,0,0.006   v0.018c0,0.031,0.007,0.06,0.009,0.09c0.004,0.067,0.007,0.134,0.02,0.199c0.008,0.043,0.024,0.084,0.036,0.126   c0.015,0.051,0.027,0.103,0.047,0.152c0.019,0.045,0.044,0.087,0.066,0.13c0.022,0.042,0.042,0.086,0.068,0.126   c0.026,0.04,0.058,0.075,0.087,0.112c0.031,0.038,0.059,0.078,0.094,0.113c0.032,0.033,0.069,0.06,0.104,0.09   c0.038,0.033,0.075,0.067,0.116,0.096c0.042,0.029,0.088,0.051,0.133,0.076c0.04,0.022,0.077,0.047,0.12,0.065   c0.06,0.026,0.123,0.043,0.186,0.061c0.03,0.009,0.057,0.022,0.088,0.029c3.575,0.791,6.931,2.18,9.973,4.13   c0.054,0.034,0.113,0.05,0.17,0.077c0.046,0.022,0.09,0.045,0.138,0.062c0.164,0.059,0.332,0.098,0.501,0.098c0,0,0,0,0.001,0   c0.001,0,0.001,0,0.002,0c0.171,0,0.338-0.04,0.499-0.097c0.037-0.013,0.071-0.025,0.107-0.041c0.158-0.07,0.305-0.163,0.433-0.288   c0.006-0.006,0.014-0.007,0.02-0.013l5.599-5.598c0.703-0.703,1.848-0.703,2.551,0l5.579,5.58c0.339,0.338,0.525,0.791,0.525,1.274   c0,0.484-0.187,0.937-0.525,1.275l-5.583,5.583c-0.001,0.001-0.003,0.003-0.004,0.004l-0.011,0.011   c-0.003,0.003-0.004,0.007-0.006,0.009c-0.138,0.14-0.245,0.302-0.317,0.477c-0.005,0.011-0.007,0.023-0.011,0.034   c-0.065,0.169-0.101,0.347-0.103,0.529c0,0.012,0.002,0.022,0.002,0.034c0.003,0.179,0.035,0.359,0.103,0.532   c0.004,0.01,0.01,0.019,0.015,0.029c0.033,0.077,0.068,0.153,0.115,0.226c1.949,3.042,3.339,6.397,4.129,9.973   c0.002,0.007,0.006,0.013,0.008,0.02c0.036,0.154,0.097,0.296,0.176,0.428c0.009,0.014,0.015,0.03,0.024,0.043   c0.081,0.124,0.182,0.232,0.294,0.327c0.02,0.017,0.04,0.034,0.061,0.05c0.115,0.087,0.24,0.157,0.377,0.209   c0.024,0.009,0.048,0.015,0.072,0.022c0.141,0.045,0.288,0.075,0.443,0.076c0.003,0,0.005,0.001,0.008,0.001   c0.001,0,0.003,0,0.004,0h7.903c0.998,0,1.81,0.812,1.81,1.81V53.934z"/><path d="M50,29.5c-11.304,0-20.5,9.196-20.5,20.5S38.696,70.5,50,70.5S70.5,61.304,70.5,50S61.304,29.5,50,29.5z M50,67.5   c-9.649,0-17.5-7.851-17.5-17.5S40.351,32.5,50,32.5S67.5,40.351,67.5,50S59.649,67.5,50,67.5z"/></g><text x="0" y="115" fill="#000000" font-size="5px" font-weight="bold" font-family="'Helvetica Neue', Helvetica, Arial-Unicode, Arial, Sans-serif">Created by Maxim Kulikov</text><text x="0" y="120" fill="#000000" font-size="5px" font-weight="bold" font-family="'Helvetica Neue', Helvetica, Arial-Unicode, Arial, Sans-serif">from the Noun Project</text></svg>